{
  "accessors": [
    {
      "bufferView": 1,
      "componentType": 5126,
      "count": 65532,
      "max": [
        1.8642710447311401,
        2.9363369941711426,
        0.7539910078048706
      ],
      "min": [
        -2.4222021102905273,
        -2.2169930934906006,
        -4.047904968261719
      ],
      "type": "VEC3"
    },
    {
      "bufferView": 1,
      "byteOffset": 786384,
      "componentType": 5126,
      "count": 65532,
      "max": [
        0.999993085861206,
        0.9999833106994629,
        0.9999897480010986
      ],
      "min": [
        -0.9999659657478333,
        -0.9999871253967285,
        -0.9999967813491821
      ],
      "type": "VEC3"
    },
    {
      "bufferView": 0,
      "componentType": 5125,
      "count": 344211,
      "type": "SCALAR"
    },
    {
      "bufferView": 1,
      "byteOffset": 1572768,
      "componentType": 5126,
      "count": 65534,
      "max": [
        1.859341025352478,
        2.794152021408081,
        2.3257460594177246
      ],
      "min": [
        -2.265486001968384,
        -2.3056728839874268,
        -4.047904968261719
      ],
      "type": "VEC3"
    },
    {
      "bufferView": 1,
      "byteOffset": 2359176,
      "componentType": 5126,
      "count": 65534,
      "max": [
        0.9999664425849915,
        0.9997623562812805,
        0.9999890923500061
      ],
      "min": [
        -0.999970018863678,
        -0.9999995231628418,
        -0.9999899864196777
      ],
      "type": "VEC3"
    },
    {
      "bufferView": 0,
      "byteOffset": 1376844,
      "componentType": 5125,
      "count": 323634,
      "type": "SCALAR"
    },
    {
      "bufferView": 1,
      "byteOffset": 3145584,
      "componentType": 5126,
      "count": 65532,
      "max": [
        1.824658989906311,
        1.7656760215759277,
        2.0290110111236572
      ],
      "min": [
        -1.7657029628753662,
        -2.3056728839874268,
        -4.043482780456543
      ],
      "type": "VEC3"
    },
    {
      "bufferView": 1,
      "byteOffset": 3931968,
      "componentType": 5126,
      "count": 65532,
      "max": [
        0.9999791979789734,
        0.9999322295188904,
        0.9999993443489075
      ],
      "min": [
        -0.9996844530105591,
        -0.9999943971633911,
        -0.9999557733535767
      ],
      "type": "VEC3"
    },
    {
      "bufferView": 0,
      "byteOffset": 2671380,
      "componentType": 5125,
      "count": 296028,
      "type": "SCALAR"
    },
    {
      "bufferView": 1,
      "byteOffset": 4718352,
      "componentType": 5126,
      "count": 12763,
      "max": [
        1.788478970527649,
        2.27587890625,
        2.2258288860321045
      ],
      "min": [
        -1.972640037536621,
        -2.29613995552063,
        -4.047778129577637
      ],
      "type": "VEC3"
    },
    {
      "bufferView": 1,
      "byteOffset": 4871508,
      "componentType": 5126,
      "count": 12763,
      "max": [
        0.9998246431350708,
        0.9999322295188904,
        0.9999030828475952
      ],
      "min": [
        -0.999424934387207,
        -0.999873161315918,
        -0.9996692538261414
      ],
      "type": "VEC3"
    },
    {
      "bufferView": 0,
      "byteOffset": 3855492,
      "componentType": 5125,
      "count": 29523,
      "type": "SCALAR"
    }
  ],
  "asset": {
    "extras": {
      "author": "C-List (https://sketchfab.com/Mulberry_Bill)",
      "license": "CC-BY-4.0 (http://creativecommons.org/licenses/by/4.0/)",
      "source": "https://sketchfab.com/3d-models/big-chungus-4b975c36039a4771a155a4f01d274093",
      "title": "Big Chungus"
    },
    "generator": "Sketchfab-12.66.0",
    "version": "2.0"
  },
  "bufferViews": [
    {
      "buffer": 0,
      "byteLength": 3973584,
      "name": "floatBufferViews",
      "target": 34963
    },
    {
      "buffer": 0,
      "byteLength": 5024664,
      "byteOffset": 3973584,
      "byteStride": 12,
      "name": "floatBufferViews",
      "target": 34962
    }
  ],
  "buffers": [
    {
      "byteLength": 8998248,
      "uri": "scene.bin"
    }
  ],
  "extensionsRequired": [
    "KHR_materials_pbrSpecularGlossiness"
  ],
  "extensionsUsed": [
    "KHR_materials_pbrSpecularGlossiness"
  ],
  "materials": [
    {
      "doubleSided": true,
      "extensions": {
        "KHR_materials_pbrSpecularGlossiness": {
          "diffuseFactor": [
            0.7197773238297562,
            0.7197773238297562,
            0.7197773238297562,
            1.0
          ],
          "glossinessFactor": 0.3123460298483678,
          "specularFactor": [
            0.5720098969103858,
            0.5720098969103858,
            0.5720098969103858
          ]
        }
      },
      "name": "null"
    }
  ],
  "meshes": [
    {
      "name": "Object_0",
      "primitives": [
        {
          "attributes": {
            "NORMAL": 1,
            "POSITION": 0
          },
          "indices": 2,
          "material": 0,
          "mode": 4
        }
      ]
    },
    {
      "name": "Object_1",
      "primitives": [
        {
          "attributes": {
            "NORMAL": 4,
            "POSITION": 3
          },
          "indices": 5,
          "material": 0,
          "mode": 4
        }
      ]
    },
    {
      "name": "Object_2",
      "primitives": [
        {
          "attributes": {
            "NORMAL": 7,
            "POSITION": 6
          },
          "indices": 8,
          "material": 0,
          "mode": 4
        }
      ]
    },
    {
      "name": "Object_3",
      "primitives": [
        {
          "attributes": {
            "NORMAL": 10,
            "POSITION": 9
          },
          "indices": 11,
          "material": 0,
          "mode": 4
        }
      ]
    }
  ],
  "nodes": [
    {
      "children": [
        1
      ],
      "matrix": [
        1.0,
        0.0,
        0.0,
        0.0,
        0.0,
        2.220446049250313e-16,
        -1.0,
        0.0,
        0.0,
        1.0,
        2.220446049250313e-16,
        0.0,
        0.0,
        0.0,
        0.0,
        1.0
      ],
      "name": "Sketchfab_model"
    },
    {
      "children": [
        2,
        3,
        4,
        5
      ],
      "name": "Big_Chungus.obj.cleaner.materialmerger.gles"
    },
    {
      "mesh": 0,
      "name": "Object_2"
    },
    {
      "mesh": 1,
      "name": "Object_3"
    },
    {
      "mesh": 2,
      "name": "Object_4"
    },
    {
      "mesh": 3,
      "name": "Object_5"
    }
  ],
  "scene": 0,
  "scenes": [
    {
      "name": "Sketchfab_Scene",
      "nodes": [
        0
      ]
    }
  ]
}
